HIERARCHY
ROOT Hips
{
	OFFSET 0.000000 0.000000 0.000000
	CHANNELS 6 Xposition Yposition Zposition Zrotation Yrotation Xrotation 
	JOINT LowerBack
	{
		OFFSET 0.000000 0.000000 0.000000
		CHANNELS 3 Zrotation Yrotation Xrotation
		JOINT Spine
		{
			OFFSET 0.028270 2.035590 -0.193380
			CHANNELS 3 Zrotation Yrotation Xrotation
			JOINT Spine1
			{
				OFFSET 0.056720 2.048850 -0.042750
				CHANNELS 3 Zrotation Yrotation Xrotation
				JOINT Neck
				{
					OFFSET 0.000000 0.000000 0.000000
					CHANNELS 3 Zrotation Yrotation Xrotation
					JOINT Neck1
					{
						OFFSET -0.054170 1.746240 0.172020
						CHANNELS 3 Zrotation Yrotation Xrotation
						JOINT Head
						{
							OFFSET 0.104070 1.761360 -0.123970
							CHANNELS 3 Zrotation Yrotation Xrotation
							End Site
							{
								OFFSET 0.000000 0.000000 0.000000
							}
						}
					}
				}
				JOINT LeftShoulder
				{
					OFFSET 0.000000 0.000000 0.000000
					CHANNELS 3 Zrotation Yrotation Xrotation
					JOINT LeftArm
					{
						OFFSET 3.362410 1.200890 -0.311210
						CHANNELS 3 Zrotation Yrotation Xrotation
						JOINT LeftForeArm
						{
							OFFSET 4.983000 -0.000000 -0.000000
							CHANNELS 3 Zrotation Yrotation Xrotation
							JOINT LeftHand
							{
								OFFSET 3.483560 -0.000000 -0.000000
								CHANNELS 3 Zrotation Yrotation Xrotation
								JOINT LeftFingerBase
								{
									OFFSET 0.000000 0.000000 0.000000
									CHANNELS 3 Zrotation Yrotation Xrotation
									JOINT LeftHandIndex1
									{
										OFFSET 0.715260 -0.000000 -0.000000
										CHANNELS 3 Zrotation Yrotation Xrotation
										End Site
										{
											OFFSET 0.000000 0.000000 0.000000
										}
									}
								}
								JOINT LThumb
								{
									OFFSET 0.000000 0.000000 0.000000
									CHANNELS 3 Zrotation Yrotation Xrotation
									End Site
									{
										OFFSET 0.000000 0.000000 0.000000
									}
								}
							}
						}
					}
				}
				JOINT RightShoulder
				{
					OFFSET 0.000000 0.000000 0.000000
					CHANNELS 3 Zrotation Yrotation Xrotation
					JOINT RightArm
					{
						OFFSET -3.136600 1.374050 -0.404650
						CHANNELS 3 Zrotation Yrotation Xrotation
						JOINT RightForeArm
						{
							OFFSET -5.241900 -0.000000 -0.000000
							CHANNELS 3 Zrotation Yrotation Xrotation
							JOINT RightHand
							{
								OFFSET -3.444170 -0.000000 -0.000000
								CHANNELS 3 Zrotation Yrotation Xrotation
								JOINT RightFingerBase
								{
									OFFSET 0.000000 0.000000 0.000000
									CHANNELS 3 Zrotation Yrotation Xrotation
									JOINT RightHandIndex1
									{
										OFFSET -0.622530 -0.000000 -0.000000
										CHANNELS 3 Zrotation Yrotation Xrotation
										End Site
										{
											OFFSET 0.000000 0.000000 0.000000
										}
									}
								}
								JOINT RThumb
								{
									OFFSET 0.000000 0.000000 0.000000
									CHANNELS 3 Zrotation Yrotation Xrotation
									End Site
									{
										OFFSET 0.000000 0.000000 0.000000
									}
								}
							}
						}
					}
				}
			}
		}
	}
}
}
MOTION
Frames: 9
Frame Time: 0.008333
5.003767 17.342276 0.925750 -3.193632 -85.870112 12.332486 -1.921853 -4.779006 -9.332960 -0.552501 -4.898705 -5.118954 -4.790363 -4.884786 -3.976060 6.067642 -3.663329 5.447395 -1.694899 -0.318545 3.662688 0.000000 0.000000 0.000000 14.492485 4.933167 -7.104352 -56.474337 -68.521215 -18.038159 173.868060 -54.631165 179.511620 26.248757 -18.621572 -4.788132 -0.323084 1.417320 -0.000000 0.000000 0.000000 0.000000 0.000000 0.000000 0.000000 -3.270176 -9.866060 -7.596355 61.619043 58.971367 -17.660644 -173.968227 53.104406 179.614067 -21.357926 23.434451 -4.792464 0.145530 -1.342905 -0.000000 0.000000 0.000000 0.000000 0.000000 0.000000 0.000000 
4.998588 17.343176 0.918360 -2.490775 -84.674475 11.828385 -2.025244 -4.785223 -9.353085 -0.550483 -4.898720 -5.145362 -4.692381 -4.888097 -4.084772 5.841334 -3.636151 5.404920 -1.641982 -0.315365 3.652964 0.000000 0.000000 0.000000 14.278583 4.832328 -7.074462 -57.262749 -68.634874 -17.291064 173.843809 -54.694780 179.510229 26.268312 -18.654599 -4.799105 -0.318712 1.416709 -0.000000 0.000000 0.000000 0.000000 0.000000 0.000000 0.000000 -3.561292 -9.762367 -7.562398 60.506796 59.332001 -18.871191 -173.990613 53.795375 179.610985 -21.634309 23.600444 -4.888961 0.147046 -1.340467 -0.000000 0.000000 0.000000 0.000000 0.000000 0.000000 0.000000 
4.994579 17.344139 0.910794 -1.929670 -83.470914 11.469250 -2.122169 -4.776203 -9.354540 -0.546683 -4.882180 -5.172710 -4.587201 -4.874663 -4.210420 5.575036 -3.588320 5.362431 -1.582073 -0.311879 3.643236 0.000000 0.000000 0.000000 14.004810 4.742944 -7.035972 -58.050400 -68.775839 -16.526144 173.823502 -54.780276 179.509096 26.269986 -18.669659 -4.802086 -0.313564 1.415336 -0.000000 0.000000 0.000000 0.000000 0.000000 0.000000 0.000000 -3.907644 -9.613866 -7.535832 59.338523 59.682090 -20.183309 -174.016268 54.642340 179.607104 -21.969638 23.783380 -5.003176 0.148342 -1.337054 -0.000000 0.000000 0.000000 0.000000 0.000000 0.000000 0.000000 
4.991366 17.345213 0.903203 -1.495347 -82.256493 11.255856 -2.201156 -4.749881 -9.354468 -0.539088 -4.848759 -5.203660 -4.476214 -4.843780 -4.349332 5.265788 -3.522748 5.318533 -1.516194 -0.308129 3.633266 0.000000 0.000000 0.000000 13.667840 4.665285 -6.988170 -58.836716 -68.938556 -15.742125 173.809026 -54.884525 179.508188 26.256282 -18.674607 -4.799369 -0.307797 1.413479 -0.000000 0.000000 0.000000 0.000000 0.000000 0.000000 0.000000 -4.311031 -9.423180 -7.519239 58.120487 60.017602 -21.589176 -174.048551 55.671398 179.602509 -22.360624 23.959712 -5.129811 0.149213 -1.332067 -0.000000 0.000000 0.000000 0.000000 0.000000 0.000000 0.000000 
4.989420 17.346365 0.895300 -1.109998 -81.044628 11.098374 -2.270727 -4.702736 -9.337187 -0.530662 -4.793496 -5.235442 -4.361777 -4.790571 -4.502711 4.921339 -3.439001 5.273900 -1.445949 -0.304195 3.623126 0.000000 0.000000 0.000000 13.271735 4.597271 -6.932056 -59.621423 -69.128809 -14.937084 173.799881 -55.008507 179.507500 26.230201 -18.663825 -4.790360 -0.301531 1.410962 -0.000000 0.000000 0.000000 0.000000 0.000000 0.000000 0.000000 -4.756273 -9.186814 -7.512577 56.831614 60.336552 -23.106800 -174.096142 56.903089 179.597513 -22.789491 24.103140 -5.259267 0.149405 -1.324935 -0.000000 0.000000 0.000000 0.000000 0.000000 0.000000 0.000000 
4.988832 17.347579 0.887017 -0.765565 -79.837542 10.991039 -2.329082 -4.632963 -9.305163 -0.521560 -4.714726 -5.268252 -4.245386 -4.713249 -4.668868 4.544398 -3.339537 5.227359 -1.372412 -0.300118 3.612556 0.000000 0.000000 0.000000 12.820442 4.537082 -6.867927 -60.407366 -69.343061 -14.107991 173.796195 -55.149067 179.506944 26.199725 -18.641129 -4.777454 -0.295047 1.407913 -0.000000 0.000000 0.000000 0.000000 0.000000 0.000000 0.000000 -5.238890 -8.906124 -7.516850 55.458463 60.632769 -24.746723 -174.166637 58.354222 179.592364 -23.240062 24.190286 -5.382048 0.148764 -1.315368 -0.000000 0.000000 0.000000 0.000000 0.000000 0.000000 0.000000 
4.989762 17.348858 0.878283 -0.445700 -78.640174 10.916740 -2.378242 -4.538731 -9.255510 -0.512692 -4.610173 -5.301398 -4.128115 -4.609560 -4.846726 4.138905 -3.226472 5.178117 -1.296226 -0.295920 3.601369 0.000000 0.000000 0.000000 12.321212 4.482616 -6.796404 -61.199988 -69.577711 -13.251610 173.797011 -55.299750 179.506420 26.173811 -18.608775 -4.762953 -0.288652 1.404420 -0.000000 0.000000 0.000000 0.000000 0.000000 0.000000 0.000000 -5.755545 -8.582011 -7.532495 53.981906 60.897049 -26.525718 -174.268491 60.031420 179.587339 -23.693514 24.203077 -5.489052 0.147266 -1.303387 -0.000000 0.000000 0.000000 0.000000 0.000000 0.000000 0.000000 
4.992321 17.350139 0.869008 -0.138384 -77.457777 10.861336 -2.421359 -4.418376 -9.183722 -0.505052 -4.477557 -5.333909 -4.010489 -4.477307 -5.035255 3.709281 -3.102257 5.125243 -1.217596 -0.291597 3.589336 0.000000 0.000000 0.000000 11.782097 4.430677 -6.718162 -62.007311 -69.829038 -12.362358 173.801266 -55.456798 179.505820 26.162330 -18.566494 -4.748756 -0.282651 1.400491 -0.000000 0.000000 0.000000 0.000000 0.000000 0.000000 0.000000 -6.304832 -8.214919 -7.559271 52.380157 61.115111 -28.462871 -174.410866 61.934035 179.582723 -24.128887 24.137961 -5.573578 0.144968 -1.289415 -0.000000 0.000000 0.000000 0.000000 0.000000 0.000000 0.000000 
4.996433 17.351471 0.859259 0.151048 -76.289572 10.834931 -2.454366 -4.271284 -9.094882 -0.497552 -4.316671 -5.366290 -3.891666 -4.316239 -5.231717 3.253871 -2.970985 5.066845 -1.135476 -0.287072 3.576045 0.000000 0.000000 0.000000 11.209074 4.379802 -6.633027 -62.832310 -70.085277 -11.440445 173.808170 -55.611982 179.504982 26.177916 -18.522595 -4.739264 -0.277436 1.396379 -0.000000 0.000000 0.000000 0.000000 0.000000 0.000000 0.000000 -6.899887 -7.807701 -7.597287 50.653648 61.266994 -30.558836 -174.598745 64.052573 179.578665 -24.535637 23.978683 -5.628719 0.142227 -1.273808 -0.000000 0.000000 0.000000 0.000000 0.000000 0.000000 0.000000 
